<svg width="100" height="100" viewBox="0 0 100 100" fill="none" xmlns="http://www.w3.org/2000/svg">
    <g clip-path="url(#clip0_7_338)">
        <mask id="mask0_7_338" style="mask-type:luminance" maskUnits="userSpaceOnUse" x="58" y="13" width="40"
              height="74">
            <path d="M58.2329 13.3745H97.3895V86.4935H58.2329V13.3745Z" fill="white"/>
        </mask>
        <g mask="url(#mask0_7_338)">
            <mask id="mask1_7_338" style="mask-type:luminance" maskUnits="userSpaceOnUse" x="2" y="11" width="96"
                  height="79">
                <path d="M2.70215 41.5995V59.0676C2.70215 75.6181 16.1185 89.0345 32.669 89.0345H67.4148C83.9653 89.0345 97.3816 75.6181 97.3816 59.0676V41.5995C97.3816 25.0491 83.9653 11.6327 67.4148 11.6327H32.669C16.1185 11.6327 2.70215 25.0491 2.70215 41.5995Z"
                      fill="white"/>
            </mask>
            <g mask="url(#mask1_7_338)">
                <path d="M97.132 33.4054C96.1238 32.6001 94.8814 31.4825 94.0745 30.4868C93.4471 29.7111 93.3206 28.6466 93.7577 27.7492C95.9146 23.315 96.8152 19.5114 88.3277 15.7156C79.1894 11.6295 63.5755 13.1279 59.3473 26.9516C55.1208 40.7754 66.7282 49.2878 78.5167 57.1869C90.3037 65.0859 93.1864 84.7267 62.0943 86.0892C81.5493 87.4003 94.9407 80.4767 93.9855 66.5843C93.0319 52.6919 71.4855 51.0577 64.2575 35.6685C57.0296 20.2778 76.5314 14.4202 82.1221 18.3705C84.2557 26.6582 94.0167 33.3508 96.8667 33.9517C97.1913 34.0204 97.3911 33.613 97.132 33.4054Z"
                      fill="#9E1F63"/>
            </g>
        </g>
        <mask id="mask2_7_338" style="mask-type:luminance" maskUnits="userSpaceOnUse" x="3" y="32" width="74"
              height="55">
            <path d="M3.6145 32.5103H76.2049V86.3605H3.6145V32.5103Z" fill="white"/>
        </mask>
        <g mask="url(#mask2_7_338)">
            <mask id="mask3_7_338" style="mask-type:luminance" maskUnits="userSpaceOnUse" x="3" y="11" width="96"
                  height="78">
                <path d="M3.6145 41.5413V58.9804C3.6145 75.5032 17.0085 88.8972 33.5313 88.8972H68.2193C84.7421 88.8972 98.1361 75.5032 98.1361 58.9804V41.5413C98.1361 25.0185 84.7421 11.6245 68.2193 11.6245H33.5313C17.0085 11.6245 3.6145 25.0185 3.6145 41.5413Z"
                      fill="white"/>
            </mask>
            <g mask="url(#mask3_7_338)">
                <path d="M57.0986 85.9958C35.1331 88.8052 8.44946 70.3129 3.61914 51.1209C13.3499 59.5444 32.2287 59.5444 32.2287 59.5444C21.7001 49.9133 23.224 32.8093 23.224 32.8093C34.2979 43.3254 66.4273 40.6048 76.049 65.0805C61.3337 48.6216 46.207 53.8165 31.6257 43.6355C34.77 65.0556 52.2215 69.3001 56.145 70.8115C38.3554 69.7239 21.3371 63.2435 21.3371 63.2435C27.9172 75.8428 44.7548 83.4576 57.0986 85.9958Z"
                      fill="#9E1F63"/>
            </g>
        </g>
        <mask id="mask4_7_338" style="mask-type:luminance" maskUnits="userSpaceOnUse" x="58" y="13" width="40"
              height="74">
            <path d="M58.2329 13.3745H97.3895V86.4935H58.2329V13.3745Z" fill="white"/>
        </mask>
        <g mask="url(#mask4_7_338)">
            <mask id="mask5_7_338" style="mask-type:luminance" maskUnits="userSpaceOnUse" x="2" y="11" width="96"
                  height="79">
                <path d="M2.70215 41.5995V59.0676C2.70215 75.6181 16.1185 89.0345 32.669 89.0345H67.4148C83.9653 89.0345 97.3816 75.6181 97.3816 59.0676V41.5995C97.3816 25.0491 83.9653 11.6327 67.4148 11.6327H32.669C16.1185 11.6327 2.70215 25.0491 2.70215 41.5995Z"
                      fill="white"/>
            </mask>
            <g mask="url(#mask5_7_338)">
                <path d="M97.132 33.4054C96.1238 32.6001 94.8814 31.4825 94.0745 30.4868C93.4471 29.7111 93.3206 28.6466 93.7577 27.7492C95.9146 23.315 96.8152 19.5114 88.3277 15.7156C79.1894 11.6295 63.5755 13.1279 59.3473 26.9516C55.1208 40.7754 66.7282 49.2878 78.5167 57.1869C90.3037 65.0859 93.1864 84.7267 62.0943 86.0892C81.5493 87.4003 94.9407 80.4767 93.9855 66.5843C93.0319 52.6919 71.4855 51.0577 64.2575 35.6685C57.0296 20.2778 76.5314 14.4202 82.1221 18.3705C84.2557 26.6582 94.0167 33.3508 96.8667 33.9517C97.1913 34.0204 97.3911 33.613 97.132 33.4054Z"
                      fill="#9E1F63"/>
            </g>
        </g>
        <mask id="mask6_7_338" style="mask-type:luminance" maskUnits="userSpaceOnUse" x="3" y="32" width="74"
              height="55">
            <path d="M3.6145 32.5103H76.2049V86.3605H3.6145V32.5103Z" fill="white"/>
        </mask>
        <g mask="url(#mask6_7_338)">
            <mask id="mask7_7_338" style="mask-type:luminance" maskUnits="userSpaceOnUse" x="3" y="11" width="96"
                  height="78">
                <path d="M3.6145 41.5413V58.9804C3.6145 75.5032 17.0085 88.8972 33.5313 88.8972H68.2193C84.7421 88.8972 98.1361 75.5032 98.1361 58.9804V41.5413C98.1361 25.0185 84.7421 11.6245 68.2193 11.6245H33.5313C17.0085 11.6245 3.6145 25.0185 3.6145 41.5413Z"
                      fill="white"/>
            </mask>
            <g mask="url(#mask7_7_338)">
                <path d="M57.0986 85.9958C35.1331 88.8052 8.44946 70.3129 3.61914 51.1209C13.3499 59.5444 32.2287 59.5444 32.2287 59.5444C21.7001 49.9133 23.224 32.8093 23.224 32.8093C34.2979 43.3254 66.4273 40.6048 76.049 65.0805C61.3337 48.6216 46.207 53.8165 31.6257 43.6355C34.77 65.0556 52.2215 69.3001 56.145 70.8115C38.3554 69.7239 21.3371 63.2435 21.3371 63.2435C27.9172 75.8428 44.7548 83.4576 57.0986 85.9958Z"
                      fill="#9E1F63"/>
            </g>
        </g>
        <g clip-path="url(#clip1_7_338)">
            <mask id="mask8_7_338" style="mask-type:luminance" maskUnits="userSpaceOnUse" x="58" y="13" width="40"
                  height="74">
                <path d="M58.2329 13.3745H97.3895V86.4935H58.2329V13.3745Z" fill="white"/>
            </mask>
            <g mask="url(#mask8_7_338)">
                <mask id="mask9_7_338" style="mask-type:luminance" maskUnits="userSpaceOnUse" x="2" y="11" width="96"
                      height="79">
                    <path d="M2.70215 41.5995V59.0676C2.70215 75.6181 16.1185 89.0345 32.669 89.0345H67.4148C83.9653 89.0345 97.3816 75.6181 97.3816 59.0676V41.5995C97.3816 25.0491 83.9653 11.6327 67.4148 11.6327H32.669C16.1185 11.6327 2.70215 25.0491 2.70215 41.5995Z"
                          fill="white"/>
                </mask>
                <g mask="url(#mask9_7_338)">
                    <path d="M97.132 33.4054C96.1238 32.6001 94.8814 31.4825 94.0745 30.4868C93.4471 29.7111 93.3206 28.6466 93.7577 27.7492C95.9146 23.315 96.8152 19.5114 88.3277 15.7156C79.1894 11.6295 63.5755 13.1279 59.3473 26.9516C55.1208 40.7754 66.7282 49.2878 78.5167 57.1869C90.3037 65.0859 93.1864 84.7267 62.0943 86.0892C81.5493 87.4003 94.9407 80.4767 93.9855 66.5843C93.0319 52.6919 71.4855 51.0577 64.2575 35.6685C57.0296 20.2778 76.5314 14.4202 82.1221 18.3705C84.2557 26.6582 94.0167 33.3508 96.8667 33.9517C97.1913 34.0204 97.3911 33.613 97.132 33.4054Z"
                          fill="#9E1F63"/>
                </g>
            </g>
            <mask id="mask10_7_338" style="mask-type:luminance" maskUnits="userSpaceOnUse" x="3" y="32" width="74"
                  height="55">
                <path d="M3.6145 32.5103H76.2049V86.3605H3.6145V32.5103Z" fill="white"/>
            </mask>
            <g mask="url(#mask10_7_338)">
                <mask id="mask11_7_338" style="mask-type:luminance" maskUnits="userSpaceOnUse" x="3" y="11" width="96"
                      height="78">
                    <path d="M3.6145 41.5413V58.9804C3.6145 75.5032 17.0085 88.8972 33.5313 88.8972H68.2193C84.7421 88.8972 98.1361 75.5032 98.1361 58.9804V41.5413C98.1361 25.0185 84.7421 11.6245 68.2193 11.6245H33.5313C17.0085 11.6245 3.6145 25.0185 3.6145 41.5413Z"
                          fill="white"/>
                </mask>
                <g mask="url(#mask11_7_338)">
                    <path d="M57.0986 85.9958C35.1331 88.8052 8.44946 70.3129 3.61914 51.1209C13.3499 59.5444 32.2287 59.5444 32.2287 59.5444C21.7001 49.9133 23.224 32.8093 23.224 32.8093C34.2979 43.3254 66.4273 40.6048 76.049 65.0805C61.3337 48.6216 46.207 53.8165 31.6257 43.6355C34.77 65.0556 52.2215 69.3001 56.145 70.8115C38.3554 69.7239 21.3371 63.2435 21.3371 63.2435C27.9172 75.8428 44.7548 83.4576 57.0986 85.9958Z"
                          fill="#9E1F63"/>
                </g>
            </g>
            <mask id="mask12_7_338" style="mask-type:luminance" maskUnits="userSpaceOnUse" x="58" y="13" width="40"
                  height="74">
                <path d="M58.2329 13.3745H97.3895V86.4935H58.2329V13.3745Z" fill="white"/>
            </mask>
            <g mask="url(#mask12_7_338)">
                <mask id="mask13_7_338" style="mask-type:luminance" maskUnits="userSpaceOnUse" x="2" y="11" width="96"
                      height="79">
                    <path d="M2.70215 41.5995V59.0676C2.70215 75.6181 16.1185 89.0345 32.669 89.0345H67.4148C83.9653 89.0345 97.3816 75.6181 97.3816 59.0676V41.5995C97.3816 25.0491 83.9653 11.6327 67.4148 11.6327H32.669C16.1185 11.6327 2.70215 25.0491 2.70215 41.5995Z"
                          fill="white"/>
                </mask>
                <g mask="url(#mask13_7_338)">
                    <path d="M97.132 33.4054C96.1238 32.6001 94.8814 31.4825 94.0745 30.4868C93.4471 29.7111 93.3206 28.6466 93.7577 27.7492C95.9146 23.315 96.8152 19.5114 88.3277 15.7156C79.1894 11.6295 63.5755 13.1279 59.3473 26.9516C55.1208 40.7754 66.7282 49.2878 78.5167 57.1869C90.3037 65.0859 93.1864 84.7267 62.0943 86.0892C81.5493 87.4003 94.9407 80.4767 93.9855 66.5843C93.0319 52.6919 71.4855 51.0577 64.2575 35.6685C57.0296 20.2778 76.5314 14.4202 82.1221 18.3705C84.2557 26.6582 94.0167 33.3508 96.8667 33.9517C97.1913 34.0204 97.3911 33.613 97.132 33.4054Z"
                          fill="#9E1F63"/>
                </g>
            </g>
            <mask id="mask14_7_338" style="mask-type:luminance" maskUnits="userSpaceOnUse" x="3" y="32" width="74"
                  height="55">
                <path d="M3.6145 32.5103H76.2049V86.3605H3.6145V32.5103Z" fill="white"/>
            </mask>
            <g mask="url(#mask14_7_338)">
                <mask id="mask15_7_338" style="mask-type:luminance" maskUnits="userSpaceOnUse" x="3" y="11" width="96"
                      height="78">
                    <path d="M3.6145 41.5413V58.9804C3.6145 75.5032 17.0085 88.8972 33.5313 88.8972H68.2193C84.7421 88.8972 98.1361 75.5032 98.1361 58.9804V41.5413C98.1361 25.0185 84.7421 11.6245 68.2193 11.6245H33.5313C17.0085 11.6245 3.6145 25.0185 3.6145 41.5413Z"
                          fill="white"/>
                </mask>
                <g mask="url(#mask15_7_338)">
                    <path d="M57.0986 85.9958C35.1331 88.8052 8.44946 70.3129 3.61914 51.1209C13.3499 59.5444 32.2287 59.5444 32.2287 59.5444C21.7001 49.9133 23.224 32.8093 23.224 32.8093C34.2979 43.3254 66.4273 40.6048 76.049 65.0805C61.3337 48.6216 46.207 53.8165 31.6257 43.6355C34.77 65.0556 52.2215 69.3001 56.145 70.8115C38.3554 69.7239 21.3371 63.2435 21.3371 63.2435C27.9172 75.8428 44.7548 83.4576 57.0986 85.9958Z"
                          fill="#9E1F63"/>
                </g>
            </g>
        </g>
    </g>
    <defs>
        <clipPath id="clip0_7_338">
            <rect width="100" height="100" fill="white"/>
        </clipPath>
        <clipPath id="clip1_7_338">
            <rect width="100" height="100" fill="white"/>
        </clipPath>
    </defs>
</svg>
