<svg width="400" height="100" viewBox="0 0 400 100" fill="none" xmlns="http://www.w3.org/2000/svg">
    <mask id="mask0_7_244" style="mask-type:luminance" maskUnits="userSpaceOnUse" x="58" y="13" width="40" height="74">
        <path d="M58.2329 13.3745H97.3895V86.4935H58.2329V13.3745Z" fill="white"/>
    </mask>
    <g mask="url(#mask0_7_244)">
        <mask id="mask1_7_244" style="mask-type:luminance" maskUnits="userSpaceOnUse" x="2" y="11" width="96"
              height="79">
            <path d="M2.70215 41.5995V59.0676C2.70215 75.6181 16.1185 89.0345 32.669 89.0345H67.4148C83.9653 89.0345 97.3816 75.6181 97.3816 59.0676V41.5995C97.3816 25.0491 83.9653 11.6327 67.4148 11.6327H32.669C16.1185 11.6327 2.70215 25.0491 2.70215 41.5995Z"
                  fill="white"/>
        </mask>
        <g mask="url(#mask1_7_244)">
            <path d="M97.132 33.4054C96.1238 32.6001 94.8814 31.4825 94.0745 30.4868C93.4471 29.7111 93.3206 28.6466 93.7577 27.7492C95.9146 23.315 96.8152 19.5114 88.3277 15.7156C79.1894 11.6295 63.5755 13.1279 59.3473 26.9516C55.1208 40.7754 66.7282 49.2878 78.5167 57.1869C90.3037 65.0859 93.1864 84.7267 62.0943 86.0892C81.5493 87.4003 94.9407 80.4767 93.9855 66.5843C93.0319 52.6919 71.4855 51.0577 64.2575 35.6685C57.0296 20.2778 76.5314 14.4202 82.1221 18.3705C84.2557 26.6582 94.0167 33.3508 96.8667 33.9517C97.1913 34.0204 97.3911 33.613 97.132 33.4054Z"
                  fill="#9E1F63"/>
        </g>
    </g>
    <mask id="mask2_7_244" style="mask-type:luminance" maskUnits="userSpaceOnUse" x="3" y="32" width="74" height="55">
        <path d="M3.6145 32.5103H76.2049V86.3605H3.6145V32.5103Z" fill="white"/>
    </mask>
    <g mask="url(#mask2_7_244)">
        <mask id="mask3_7_244" style="mask-type:luminance" maskUnits="userSpaceOnUse" x="3" y="11" width="96"
              height="78">
            <path d="M3.6145 41.5413V58.9804C3.6145 75.5032 17.0085 88.8972 33.5313 88.8972H68.2193C84.7421 88.8972 98.1361 75.5032 98.1361 58.9804V41.5413C98.1361 25.0185 84.7421 11.6245 68.2193 11.6245H33.5313C17.0085 11.6245 3.6145 25.0185 3.6145 41.5413Z"
                  fill="white"/>
        </mask>
        <g mask="url(#mask3_7_244)">
            <path d="M57.0986 85.9958C35.1331 88.8052 8.44946 70.3129 3.61914 51.1209C13.3499 59.5444 32.2287 59.5444 32.2287 59.5444C21.7001 49.9133 23.224 32.8093 23.224 32.8093C34.2979 43.3254 66.4273 40.6048 76.049 65.0805C61.3337 48.6216 46.207 53.8165 31.6257 43.6355C34.77 65.0556 52.2215 69.3001 56.145 70.8115C38.3554 69.7239 21.3371 63.2435 21.3371 63.2435C27.9172 75.8428 44.7548 83.4576 57.0986 85.9958Z"
                  fill="#9E1F63"/>
        </g>
    </g>
    <path d="M345.334 74.5762L345.49 74.7322L345.71 74.7221L353.777 74.3521L361.695 74.7221L362.051 74.7387L362.183 74.4084C362.329 74.0427 362.341 73.5175 362.291 72.9194C362.266 72.6117 362.225 72.3411 362.156 72.1349C362.122 72.0336 362.07 71.9114 361.982 71.8059C361.887 71.6917 361.724 71.5703 361.496 71.5703C361.258 71.5703 360.809 71.5071 360.116 71.3588C359.451 71.2161 358.837 71.0269 358.274 70.7924C357.991 70.6744 357.786 70.5699 357.647 70.4808C357.57 70.431 357.527 70.3948 357.506 70.3746C357.327 69.6328 357.189 68.7493 357.096 67.7204C356.998 66.6507 356.949 65.4046 356.949 63.9805V50.918C356.949 50.4574 357.2 49.8819 357.854 49.181C358.503 48.4859 359.321 47.8752 360.318 47.3531L360.326 47.3488L360.334 47.3443C361.309 46.7871 362.264 46.5195 363.203 46.5195C365.766 46.5195 367.517 47.3202 368.584 48.8313C369.12 49.5906 369.547 50.7184 369.837 52.254C370.126 53.7842 370.273 55.6868 370.273 57.9688V65.3906C370.273 66.3636 370.225 67.2852 370.128 68.1557L370.127 68.1694L370.126 68.1832C370.078 69.0357 369.961 69.7824 369.779 70.4272C369.769 70.439 369.744 70.464 369.694 70.5014C369.587 70.5819 369.413 70.6821 369.156 70.7987C368.645 71.031 368.084 71.2188 367.47 71.3605C366.842 71.5052 366.365 71.5703 366.023 71.5703C365.592 71.5703 365.398 71.9211 365.326 72.1349C365.251 72.3615 365.227 72.6495 365.227 72.9609C365.227 73.3043 365.253 73.6121 365.314 73.8733C365.374 74.1288 365.479 74.3849 365.67 74.5762L365.826 74.7326L366.047 74.7221L373.817 74.3521L381.734 74.7221L382.09 74.7387L382.222 74.4084C382.368 74.0427 382.38 73.5175 382.33 72.9194C382.305 72.6117 382.264 72.3411 382.195 72.1349C382.161 72.0336 382.109 71.9114 382.021 71.8059C381.926 71.6917 381.763 71.5703 381.535 71.5703C381.297 71.5703 380.848 71.5071 380.156 71.3588C379.49 71.2161 378.876 71.0269 378.313 70.7924C378.03 70.6744 377.825 70.5699 377.686 70.4808C377.609 70.431 377.566 70.3948 377.545 70.3746C377.366 69.6328 377.228 68.7493 377.135 67.7204C377.037 66.6507 376.988 65.4046 376.988 63.9805V57.2266C376.988 51.6666 376.297 47.5498 374.846 44.9588C373.352 42.2896 370.734 40.9922 367.137 40.9922C365.252 40.9922 363.29 41.568 361.257 42.6858C359.573 43.593 358.169 44.5639 357.057 45.6027C357.067 45.472 357.08 45.3307 357.095 45.1787C357.143 44.6983 357.215 44.1194 357.312 43.4407C357.378 43.152 357.366 42.764 357.317 42.3276C357.29 42.0867 357.238 41.8329 357.114 41.6354C357.048 41.5292 356.946 41.4148 356.793 41.3444C356.634 41.2709 356.47 41.2684 356.328 41.304L355.14 41.6009C354.756 41.697 353.754 41.9171 352.122 42.2633C350.497 42.5586 348.377 42.9037 345.761 43.2986L345.761 43.2985L345.754 43.2998C345.502 43.3417 345.331 43.501 345.225 43.6594C345.123 43.812 345.06 43.9949 345.016 44.1773C344.928 44.5445 344.891 45.043 344.891 45.6484C344.891 45.9089 345.059 46.0637 345.15 46.1276C345.245 46.1941 345.35 46.2326 345.432 46.2572C345.603 46.3085 345.827 46.343 346.083 46.3686L346.108 46.3711H346.133C346.617 46.3711 347.161 46.4593 347.767 46.6459L347.767 46.646L347.777 46.6487C348.366 46.817 348.876 47.153 349.311 47.6756L349.311 47.6757L349.319 47.6847C349.889 48.3366 350.234 49.5184 350.234 51.3633V65.3906C350.234 66.3636 350.186 67.2852 350.089 68.1557L350.087 68.1694L350.087 68.1832C350.04 69.0315 349.923 69.775 349.743 70.4176C349.73 70.4304 349.703 70.455 349.652 70.4903C349.532 70.573 349.34 70.6747 349.058 70.7924C348.495 71.0269 347.881 71.2161 347.216 71.3588C346.535 71.5046 346.031 71.5703 345.688 71.5703C345.256 71.5703 345.062 71.9211 344.991 72.1349C344.915 72.3615 344.891 72.6495 344.891 72.9609C344.891 73.3043 344.917 73.6121 344.978 73.8733C345.038 74.1288 345.143 74.3849 345.334 74.5762Z"
          fill="white" stroke="#9E1F63"/>
    <path d="M316.645 73.1224L316.645 73.1225L316.652 73.1287C318.242 74.4004 320.239 75.0195 322.605 75.0195C324.105 75.0195 325.488 74.7347 326.747 74.1577L326.747 74.1577L326.755 74.1539C328.021 73.5462 329.189 72.836 330.256 72.0227L330.256 72.0228L330.265 72.0154C330.519 71.8128 330.82 71.5615 331.169 71.2624L331.169 71.2625L331.173 71.2591C331.335 71.1172 331.484 70.9885 331.62 70.8729C332.072 71.7668 332.746 72.6103 333.625 73.4059C334.734 74.4091 335.938 74.9453 337.227 74.9453C338.847 74.9453 340.696 73.9786 342.747 72.2279L342.805 72.1779L342.846 72.1127C343.158 71.6127 343.293 70.9919 343.293 70.2891C343.293 70.0656 343.268 69.8236 343.166 69.6201C343.112 69.5113 343.028 69.3997 342.903 69.3164C342.775 69.231 342.633 69.1953 342.496 69.1953H342.35L342.228 69.2735C341.153 69.9573 340.39 70.2344 339.898 70.2344C339.1 70.2344 338.507 69.9494 338.065 69.3864C337.602 68.7969 337.355 68.0456 337.355 67.0977V49.9531C337.355 46.989 336.757 44.7327 335.445 43.3089C334.122 41.8232 331.998 41.1406 329.211 41.1406C327.516 41.1406 325.803 41.4489 324.072 42.0598L324.072 42.0597L324.067 42.0614C322.397 42.6687 320.851 43.4541 319.43 44.4183C318.009 45.383 316.83 46.4563 315.903 47.6411L315.903 47.6411L315.901 47.6435C315.014 48.7913 314.535 49.9598 314.535 51.1406V51.2642L314.593 51.3735C315.204 52.5351 316.384 53.0508 317.93 53.0508C319.003 53.0508 319.902 52.8233 320.537 52.2816C321.186 51.7271 321.473 50.9186 321.473 49.9531C321.473 48.429 321.93 47.2533 322.811 46.3731L322.811 46.3732L322.819 46.3644C323.711 45.4282 324.815 44.9609 326.168 44.9609C327.435 44.9609 328.502 45.3641 329.396 46.1685L329.401 46.1733L329.407 46.1778C330.26 46.9034 330.715 47.9618 330.715 49.4336V55C330.715 55.2386 330.67 55.3823 330.619 55.4664C330.575 55.5406 330.509 55.599 330.389 55.6389L330.378 55.6424L330.368 55.6463C328.698 56.2849 327.028 56.8497 325.359 57.3406L325.359 57.3406L325.355 57.3418C323.693 57.8456 322.009 58.5245 320.304 59.377L320.304 59.377L320.299 59.3793C316.359 61.3997 314.238 64.0093 314.238 67.2461C314.238 69.7779 315.018 71.7669 316.645 73.1224ZM329.09 68.6804C327.928 69.4238 326.71 69.7891 325.426 69.7891C324.391 69.7891 323.452 69.4992 322.596 68.9153C321.882 68.3964 321.473 67.5147 321.473 66.1328C321.473 65.1257 321.818 64.23 322.529 63.4276C323.329 62.5815 324.132 62.0157 324.933 61.7029C325.622 61.4567 326.533 61.1367 327.665 60.7429C328.649 60.415 329.665 60.0536 330.715 59.6588V66.5781C330.715 67.2096 330.279 67.9196 329.09 68.6804Z"
          fill="white" stroke="#9E1F63"/>
    <path d="M276.219 74.8164C275.674 74.8164 275.378 74.7174 275.328 74.5195C274.734 73.1836 274.193 72.0833 273.5 70.5C272.857 68.8672 272.062 66.7513 271.32 64.8711C269.786 61.1602 268.352 57.8203 267.016 54.8516C265.68 51.8333 264.121 48.7409 262.34 45.5742C261.697 44.4857 260.361 43.9414 258.332 43.9414C258.134 43.9414 258.035 43.6198 258.035 42.9766C258.035 42.3828 258.134 41.987 258.332 41.7891C259.371 41.8385 260.534 41.9375 261.82 42.0859C263.107 42.1849 264.393 42.2096 265.68 42.1602L273.102 41.7891C273.201 41.987 273.225 42.4076 273.176 43.0508C273.176 43.6445 273.102 43.9414 272.953 43.9414C270.479 43.9414 269.242 44.5104 269.242 45.6484C269.242 45.9948 270.059 47.8503 271.691 51.2148C273.324 54.5299 275.452 59.1562 278.074 65.0938C279.806 60.1953 281.167 56.3359 282.156 53.5156C283.195 50.6953 283.715 49.0872 283.715 48.6914C283.715 48.444 283.566 48.0234 283.27 47.4297C283.022 46.8359 282.701 46.168 282.305 45.4258C281.909 44.832 281.365 44.4362 280.672 44.2383C279.979 44.0404 279.262 43.9414 278.52 43.9414C278.322 43.9414 278.223 43.6198 278.223 42.9766C278.223 42.3828 278.322 41.987 278.52 41.7891C279.559 41.8385 280.697 41.9128 281.934 42.0117C283.22 42.1107 284.482 42.1602 285.719 42.1602C287.302 42.1602 288.688 42.1107 289.875 42.0117C291.112 41.9128 292.151 41.8385 292.992 41.7891C293.091 42.1849 293.141 42.6055 293.141 43.0508C293.141 43.5456 293.066 43.8424 292.918 43.9414C290.543 43.9414 289.355 44.9062 289.355 46.8359C289.355 47.8255 292.077 53.9115 297.52 65.0938C298.509 62.026 299.474 59.2057 300.414 56.6328C301.354 54.0104 302.121 51.8333 302.715 50.1016C303.309 48.3203 303.605 47.1328 303.605 46.5391C303.605 44.8073 301.973 43.9414 298.707 43.9414H298.41C298.212 43.9414 298.113 43.6198 298.113 42.9766C298.113 42.3828 298.212 41.987 298.41 41.7891C299.499 41.8385 300.686 41.9128 301.973 42.0117C303.259 42.1107 304.57 42.1602 305.906 42.1602C307.094 42.1602 308.232 42.1107 309.32 42.0117C310.458 41.9128 311.522 41.8385 312.512 41.7891C312.611 42.1849 312.66 42.556 312.66 42.9023C312.66 43.5951 312.536 43.9414 312.289 43.9414C311.646 43.9414 310.78 44.1641 309.691 44.6094C308.603 45.0052 307.885 45.6732 307.539 46.6133L297.816 73.1836C297.47 74.2721 296.777 74.8164 295.738 74.8164C295.194 74.8164 294.897 74.7174 294.848 74.5195L285.719 52.6992L278.223 73.1836C278.074 73.5299 277.802 73.8763 277.406 74.2227C277.06 74.6185 276.664 74.8164 276.219 74.8164Z"
          fill="white"/>
    <path fill-rule="evenodd" clip-rule="evenodd"
          d="M273.102 41.789C273.201 41.9869 273.225 42.4075 273.176 43.0508C273.176 43.6445 273.102 43.9414 272.953 43.9414C270.479 43.9414 269.242 44.5104 269.242 45.6484C269.242 45.9948 270.059 47.8502 271.691 51.2148C273.2 54.2778 275.131 58.4601 277.484 63.7617C277.678 64.1981 277.875 64.6421 278.074 65.0937C278.239 64.6263 278.401 64.1683 278.56 63.7198C280.062 59.4682 281.261 56.0668 282.156 53.5156C283.195 50.6953 283.715 49.0872 283.715 48.6914C283.715 48.444 283.566 48.0234 283.27 47.4297C283.022 46.8359 282.701 46.1679 282.305 45.4258C281.909 44.832 281.365 44.4362 280.672 44.2383C279.979 44.0403 279.262 43.9414 278.52 43.9414C278.322 43.9414 278.223 43.6198 278.223 42.9765C278.223 42.3828 278.322 41.9869 278.52 41.789C279.559 41.8385 280.697 41.9127 281.934 42.0117C283.22 42.1106 284.482 42.1601 285.719 42.1601C287.302 42.1601 288.688 42.1106 289.875 42.0117C291.112 41.9127 292.151 41.8385 292.992 41.789C293.091 42.1849 293.141 42.6054 293.141 43.0508C293.141 43.5455 293.066 43.8424 292.918 43.9414C290.543 43.9414 289.355 44.9062 289.355 46.8359C289.355 47.7865 291.867 53.44 296.889 63.7964C297.095 64.2209 297.305 64.6534 297.52 65.0937C297.669 64.6313 297.817 64.1746 297.965 63.7234C298.799 61.1814 299.616 58.8179 300.414 56.6328C301.354 54.0104 302.121 51.8333 302.715 50.1015C303.309 48.3203 303.605 47.1328 303.605 46.539C303.605 44.8073 301.973 43.9414 298.707 43.9414H298.41C298.212 43.9414 298.113 43.6198 298.113 42.9765C298.113 42.3828 298.212 41.9869 298.41 41.789C299.499 41.8385 300.686 41.9127 301.973 42.0117C303.259 42.1106 304.57 42.1601 305.906 42.1601C307.094 42.1601 308.232 42.1106 309.32 42.0117C310.458 41.9127 311.522 41.8385 312.512 41.789C312.611 42.1849 312.66 42.556 312.66 42.9023C312.66 43.595 312.536 43.9414 312.289 43.9414C311.646 43.9414 310.78 44.164 309.691 44.6093C308.603 45.0052 307.885 45.6731 307.539 46.6133L297.816 73.1836C297.47 74.2721 296.777 74.8164 295.738 74.8164C295.194 74.8164 294.897 74.7174 294.848 74.5195L285.719 52.6992L278.223 73.1836C278.074 73.5299 277.802 73.8763 277.406 74.2226C277.06 74.6185 276.664 74.8164 276.219 74.8164C275.674 74.8164 275.378 74.7174 275.328 74.5195C275.067 73.932 274.816 73.3901 274.558 72.8327C274.229 72.1225 273.888 71.387 273.5 70.5C273.196 69.728 272.858 68.8481 272.508 67.9361C272.117 66.9191 271.712 65.8623 271.32 64.8711C269.786 61.1601 268.352 57.8203 267.016 54.8515C265.68 51.8333 264.121 48.7409 262.34 45.5742C261.697 44.4856 260.361 43.9414 258.332 43.9414C258.134 43.9414 258.035 43.6198 258.035 42.9765C258.035 42.3828 258.134 41.9869 258.332 41.789C259.371 41.8385 260.534 41.9375 261.82 42.0859C263.107 42.1849 264.393 42.2096 265.68 42.1601L273.102 41.789ZM265.636 41.1611L273.704 40.7577L273.996 41.3418C274.139 41.6275 274.178 41.9488 274.193 42.1942C274.208 42.4566 274.2 42.7587 274.176 43.0896C274.174 43.3943 274.155 43.7015 274.09 43.9613C274.058 44.0916 273.994 44.2948 273.851 44.4857C273.686 44.7048 273.383 44.9414 272.953 44.9414C271.761 44.9414 271.008 45.0833 270.588 45.2766C270.39 45.3675 270.312 45.4489 270.284 45.4884C270.268 45.5099 270.253 45.5374 270.246 45.5879C270.262 45.643 270.289 45.7263 270.333 45.8435C270.425 46.0915 270.569 46.4403 270.77 46.897C271.17 47.8071 271.776 49.0981 272.59 50.7755C274.013 53.6659 275.807 57.5389 277.969 62.3904C279.308 58.6009 280.389 55.5323 281.213 53.1845L281.215 53.1772L281.218 53.1699C281.736 51.7643 282.12 50.6719 282.374 49.8869C282.501 49.4935 282.591 49.1881 282.649 48.9646C282.69 48.8077 282.706 48.7241 282.711 48.6925C282.706 48.6675 282.692 48.6132 282.661 48.5232C282.605 48.3659 282.513 48.1527 282.375 47.8769L282.36 47.8461L282.346 47.8143C282.119 47.2692 281.821 46.6462 281.447 45.9433C281.188 45.5702 280.849 45.3289 280.397 45.1998C279.796 45.0281 279.172 44.9414 278.52 44.9414C277.71 44.9414 277.416 44.2384 277.341 43.9942C277.247 43.687 277.223 43.3245 277.223 42.9765C277.223 42.6314 277.251 42.296 277.327 41.9918C277.401 41.6936 277.54 41.3548 277.812 41.0819L278.125 40.7691L278.567 40.7902C279.618 40.8402 280.767 40.9152 282.012 41.0147C283.273 41.1118 284.509 41.1601 285.719 41.1601C287.283 41.1601 288.639 41.1112 289.792 41.0151L289.795 41.0149C291.036 40.9156 292.083 40.8408 292.933 40.7908L293.761 40.7421L293.962 41.5465C294.083 42.0285 294.141 42.5311 294.141 43.0508C294.141 43.3363 294.12 43.6259 294.055 43.887C293.997 44.1178 293.859 44.5162 293.473 44.7734L293.221 44.9414H292.918C291.84 44.9414 291.217 45.1645 290.877 45.4411C290.576 45.6855 290.355 46.0865 290.355 46.8359C290.355 46.8232 290.355 46.8232 290.359 46.8395C290.365 46.8721 290.384 46.9693 290.441 47.1581C290.516 47.4072 290.633 47.7437 290.799 48.1747C291.13 49.0347 291.632 50.2189 292.309 51.7343C293.478 54.3474 295.154 57.9118 297.339 62.4309C298.064 60.2505 298.775 58.2041 299.474 56.292C300.412 53.6756 301.176 51.5058 301.767 49.7814C302.059 48.9055 302.273 48.1912 302.413 47.6324C302.558 47.0528 302.605 46.7068 302.605 46.539C302.605 46.2694 302.544 46.0802 302.453 45.9347C302.359 45.7858 302.198 45.6255 301.912 45.4743C301.312 45.156 300.284 44.9414 298.707 44.9414H298.41C297.6 44.9414 297.307 44.2384 297.232 43.9942C297.137 43.687 297.113 43.3245 297.113 42.9765C297.113 42.6314 297.141 42.296 297.217 41.9918C297.292 41.6936 297.43 41.3548 297.703 41.0819L298.015 40.77L298.456 40.7901C299.556 40.8401 300.754 40.915 302.049 41.0146C303.309 41.1116 304.595 41.1601 305.906 41.1601C307.066 41.1601 308.174 41.1118 309.23 41.0158L309.234 41.0154C310.382 40.9156 311.458 40.8405 312.462 40.7903L313.283 40.7492L313.482 41.5465C313.597 42.008 313.66 42.4612 313.66 42.9023C313.66 43.2806 313.63 43.6796 313.509 44.0179C313.447 44.1921 313.337 44.4174 313.134 44.6075C312.907 44.8186 312.611 44.9414 312.289 44.9414C311.842 44.9414 311.121 45.1048 310.07 45.5349L310.052 45.5424L310.033 45.5491C309.174 45.8617 308.706 46.3392 308.478 46.958C308.478 46.9583 308.478 46.9577 308.478 46.958L298.762 73.5083C298.546 74.1785 298.194 74.771 297.655 75.1945C297.102 75.6289 296.44 75.8164 295.738 75.8164C295.426 75.8164 295.09 75.7905 294.791 75.6908C294.518 75.5999 294.078 75.3728 293.906 74.8596L285.781 55.439L279.152 73.5526L279.142 73.5775C278.924 74.0865 278.558 74.535 278.113 74.9329C277.62 75.4728 276.981 75.8164 276.219 75.8164C275.906 75.8164 275.571 75.7905 275.272 75.6908C275.001 75.6007 274.566 75.377 274.391 74.8741C274.158 74.3507 273.916 73.8275 273.664 73.2822C273.324 72.547 272.965 71.7715 272.584 70.9008L272.576 70.8838L272.57 70.8665C272.264 70.0904 271.925 69.2068 271.575 68.2964L271.514 68.1368C271.143 67.1708 270.761 66.1786 270.393 65.2457C268.863 61.5451 267.434 58.2174 266.104 55.2619L266.101 55.2563C264.781 52.2733 263.239 49.2128 261.474 46.0748C261.099 45.448 260.224 44.9414 258.332 44.9414C257.522 44.9414 257.229 44.2384 257.154 43.9942C257.059 43.687 257.035 43.3245 257.035 42.9765C257.035 42.6314 257.063 42.296 257.139 41.9918C257.214 41.6936 257.352 41.3548 257.625 41.0819L257.938 40.7691L258.38 40.7902C259.44 40.8407 260.62 40.9411 261.916 41.0903C263.156 41.185 264.396 41.2086 265.636 41.1611Z"
          fill="#9E1F63"/>
    <path d="M234.557 73.5771L234.66 73.8601L234.959 73.9015C236.726 74.1469 238.211 74.4399 239.42 74.7784C240.708 75.1391 242.14 75.3164 243.711 75.3164C245.863 75.3164 247.847 74.8545 249.654 73.9251C251.457 72.9982 252.907 71.731 253.996 70.1242L253.996 70.1242L254 70.1181C255.094 68.4516 255.641 66.5994 255.641 64.5742C255.641 62.2548 254.497 60.264 252.326 58.6101L252.323 58.6078C250.915 57.5515 249.139 56.4266 247 55.2326C244.938 54.0545 243.153 52.8801 241.642 51.7101L241.641 51.7092C241.055 51.2584 240.712 50.8183 240.553 50.3994C240.42 49.8589 240.352 49.2413 240.352 48.543C240.352 47.1896 240.76 46.2558 241.504 45.6455C242.268 45.0196 243.47 44.6641 245.195 44.6641C246.521 44.6641 247.704 45.209 248.761 46.3581L248.761 46.3581L248.768 46.3658C249.9 47.5451 250.56 48.7678 250.788 50.034C250.844 50.3995 251.08 50.6533 251.385 50.7959C251.668 50.9277 252.019 50.9727 252.395 50.9727C252.734 50.9727 253.049 50.942 253.298 50.8466C253.425 50.7974 253.566 50.7197 253.677 50.5914C253.797 50.4533 253.859 50.2827 253.859 50.1016H253.859L253.859 50.0926C253.809 47.292 253.509 44.7319 252.955 42.415L252.876 42.0843L252.539 42.0363C252.202 41.988 251.763 41.9151 251.222 41.8167C250.677 41.7175 249.983 41.5936 249.142 41.4451L249.127 41.4426L249.113 41.4409C248.273 41.3421 247.504 41.2675 246.807 41.2174C246.104 41.1176 245.467 41.0664 244.898 41.0664C242.947 41.0664 241.094 41.4777 239.345 42.3001C237.639 43.0759 236.259 44.193 235.217 45.6512C234.16 47.0788 233.637 48.7423 233.637 50.6211C233.637 53.9405 235.738 56.7225 239.672 58.9934C240.663 59.5881 241.486 60.0618 242.138 60.4129L242.158 60.4235L242.178 60.4322C242.852 60.7212 243.528 61.0589 244.205 61.4458L244.223 61.4561L244.242 61.4648C244.93 61.7861 245.783 62.3503 246.805 63.1776C248.028 64.2214 248.629 65.5167 248.629 67.0977C248.629 68.6151 248.152 69.7255 247.246 70.5026C246.365 71.2505 245.202 71.6445 243.711 71.6445C242.621 71.6445 241.544 71.3509 240.476 70.7484C239.388 70.0852 238.47 69.2836 237.719 68.3439C236.966 67.4033 236.515 66.4874 236.335 65.5956C236.267 65.2099 235.973 64.9931 235.685 64.8854C235.404 64.7799 235.049 64.7422 234.656 64.7422C234.444 64.7422 234.238 64.8179 234.062 64.9063C233.877 64.9987 233.677 65.1289 233.466 65.2875L233.266 65.4375V65.6875C233.266 66.3532 233.317 67.2119 233.416 68.2583L233.417 68.27L233.419 68.2816C233.569 69.3306 233.744 70.331 233.944 71.2827C234.144 72.233 234.348 73.0011 234.557 73.5771Z"
          fill="white" stroke="#9E1F63"/>
    <path d="M216.547 74.4453C213.826 74.4453 211.327 73.7279 209.051 72.293C206.775 70.8581 204.944 68.9531 203.559 66.5781C202.223 64.1536 201.555 61.457 201.555 58.4883C201.555 55.0247 202.198 52.0312 203.484 49.5078C204.771 46.9844 206.527 45.0547 208.754 43.7188C210.98 42.3333 213.479 41.6406 216.25 41.6406C218.526 41.6406 220.53 42.0859 222.262 42.9766C223.993 43.8177 225.329 44.9062 226.27 46.2422C227.16 47.6276 227.803 49.0378 228.199 50.4727C228.645 51.8581 228.867 53.2435 228.867 54.6289C228.867 55.6185 228.719 56.237 228.422 56.4844C228.125 56.6823 227.556 56.7812 226.715 56.7812H208.012C207.616 56.7812 207.418 56.9049 207.418 57.1523C207.418 59.2305 207.839 61.2344 208.68 63.1641C209.521 65.0443 210.758 66.6029 212.391 67.8398C214.023 69.0768 216.027 69.6953 218.402 69.6953C220.48 69.6953 222.212 69.3984 223.598 68.8047C225.033 68.1615 226.072 67.5924 226.715 67.0977L227.234 66.7266C227.531 66.7266 227.68 67.0482 227.68 67.6914C227.68 68.0378 227.531 68.4831 227.234 69.0273C226.245 70.4128 224.785 71.6745 222.855 72.8125C220.926 73.901 218.823 74.4453 216.547 74.4453ZM208.012 53.6641H222.484C222.732 53.6641 222.855 53.4167 222.855 52.9219C222.855 51.8333 222.559 50.6458 221.965 49.3594C221.421 48.0234 220.579 46.8607 219.441 45.8711C218.303 44.8815 216.868 44.3867 215.137 44.3867C213.553 44.3867 212.193 44.931 211.055 46.0195C209.917 47.0586 209.051 48.2708 208.457 49.6562C207.863 50.9922 207.566 52.1549 207.566 53.1445C207.566 53.4909 207.715 53.6641 208.012 53.6641Z"
          fill="#9E1F63"/>
    <path d="M190.125 74.5195C187.651 74.5195 185.573 73.7031 183.891 72.0703C182.258 70.4375 181.441 68.112 181.441 65.0938V46.2422H177.137C176.889 46.2422 176.766 45.7227 176.766 44.6836C176.766 44.3867 176.79 44.2135 176.84 44.1641C178.324 43.4714 179.883 42.1602 181.516 40.2305C182.654 38.8945 183.495 37.7318 184.039 36.7422C184.633 35.7526 184.93 35.1589 184.93 34.9609C186.414 34.9609 187.156 35.0846 187.156 35.332V42.6797L193.02 42.7539H197.176C197.572 42.7539 197.77 42.9766 197.77 43.4219C197.77 44.362 197.522 45.3021 197.027 46.2422H187.156V64.4258C187.156 66.4049 187.651 67.9883 188.641 69.1758C189.68 70.3633 191.016 70.957 192.648 70.957C194.182 70.957 195.716 70.487 197.25 69.5469C197.398 69.4479 197.621 69.6706 197.918 70.2148C198.215 70.7096 198.339 70.9818 198.289 71.0312C197.547 71.8229 196.409 72.6146 194.875 73.4062C193.341 74.1484 191.758 74.5195 190.125 74.5195Z"
          fill="#9E1F63"/>
    <path d="M150.715 90.8477C149.676 90.8477 148.909 90.526 148.414 89.8828C147.919 89.2396 147.672 88.5964 147.672 87.9531C147.672 86.9141 148.018 86.1224 148.711 85.5781C152.818 85.5781 155.539 83.4505 156.875 79.1953C157.122 78.4531 157.419 77.5625 157.766 76.5234C158.112 75.4844 158.384 74.6432 158.582 74L147.969 48.0234C147.721 47.4297 147.474 46.9349 147.227 46.5391C146.979 46.0938 146.732 45.7474 146.484 45.5C146.039 45.0547 145.346 44.6836 144.406 44.3867C143.516 44.0898 142.798 43.9414 142.254 43.9414C142.056 43.9414 141.957 43.6198 141.957 42.9766C141.957 42.3828 142.056 41.987 142.254 41.7891C143.59 41.8385 144.901 41.9128 146.188 42.0117C147.523 42.0612 148.884 42.0859 150.27 42.0859C151.853 42.0859 153.214 42.0612 154.352 42.0117C155.49 41.9128 156.529 41.8385 157.469 41.7891C157.568 42.1849 157.617 42.556 157.617 42.9023C157.617 43.5951 157.518 43.9414 157.32 43.9414C157.122 43.9414 156.751 44.0156 156.207 44.1641C155.712 44.3125 155.217 44.5104 154.723 44.7578C154.228 44.9557 153.931 45.2031 153.832 45.5V45.6484C153.832 46.4896 156.479 52.9466 161.773 65.0195L167.414 48.7656C167.76 47.776 167.934 47.0091 167.934 46.4648C167.934 45.7227 167.538 45.1289 166.746 44.6836C166.004 44.1888 164.99 43.9414 163.703 43.9414C163.505 43.9414 163.406 43.6198 163.406 42.9766C163.406 42.3828 163.505 41.987 163.703 41.7891C164.346 41.8385 165.311 41.9128 166.598 42.0117C167.884 42.1107 169.121 42.1602 170.309 42.1602C171.397 42.1602 172.585 42.1107 173.871 42.0117C175.158 41.9128 176.122 41.8385 176.766 41.7891C176.865 42.1849 176.914 42.556 176.914 42.9023C176.914 43.5951 176.815 43.9414 176.617 43.9414C175.974 43.9414 175.108 44.1641 174.02 44.6094C172.931 45.0547 172.189 45.7721 171.793 46.7617L158.508 82.6094C157.37 85.6771 156.083 87.8047 154.648 88.9922C153.214 90.2292 151.902 90.8477 150.715 90.8477Z"
          fill="#9E1F63"/>
    <path d="M124.441 74.4453C122.759 74.4453 121.102 74.2969 119.469 74C117.885 73.6536 116.846 73.4805 116.352 73.4805C115.906 73.4805 115.362 73.6289 114.719 73.9258C114.076 74.1732 113.68 74.2969 113.531 74.2969C113.333 74.2969 113.012 74.2227 112.566 74.0742C112.171 73.9258 111.973 73.7526 111.973 73.5547C111.973 73.2578 112.121 72.3177 112.418 70.7344C112.715 69.1016 112.863 66.8503 112.863 63.9805V33.2539C112.863 31.5716 112.715 29.9883 112.418 28.5039C112.22 27.7122 110.958 27.3164 108.633 27.3164H107.965C107.668 27.3164 107.52 27.0443 107.52 26.5C107.52 25.7083 107.668 25.3125 107.965 25.3125C110.736 25.0651 112.913 24.694 114.496 24.1992C116.129 23.7044 117.292 23.2096 117.984 22.7148L118.281 22.4922H118.43C118.628 22.4922 118.826 22.6406 119.023 22.9375C119.221 23.1849 119.345 23.4323 119.395 23.6797C118.85 25.3125 118.578 27.4648 118.578 30.1367V43.125C118.578 43.6693 118.652 43.9414 118.801 43.9414C118.85 43.9414 118.875 43.9414 118.875 43.9414C118.924 43.8919 118.974 43.8672 119.023 43.8672C119.716 43.3724 120.78 42.8529 122.215 42.3086C123.65 41.7643 124.911 41.4922 126 41.4922C129.167 41.4922 131.888 42.2591 134.164 43.793C136.44 45.2773 138.172 47.1823 139.359 49.5078C140.596 51.8333 141.215 54.2331 141.215 56.707C141.215 59.082 140.745 61.3333 139.805 63.4609C138.865 65.5885 137.578 67.4935 135.945 69.1758C134.362 70.8086 132.556 72.0951 130.527 73.0352C128.548 73.9753 126.52 74.4453 124.441 74.4453ZM125.852 71.3281C127.732 71.3281 129.34 70.7096 130.676 69.4727C132.012 68.2357 133.026 66.6276 133.719 64.6484C134.461 62.6198 134.832 60.4922 134.832 58.2656C134.832 54.3568 133.793 51.1901 131.715 48.7656C129.686 46.3411 126.99 45.1289 123.625 45.1289C122.24 45.1289 121.052 45.5247 120.062 46.3164C119.073 47.0586 118.578 48.1471 118.578 49.582V66.875C118.578 68.4089 119.296 69.5469 120.73 70.2891C122.215 70.9818 123.922 71.3281 125.852 71.3281Z"
          fill="#9E1F63"/>
</svg>
